{"title":"Gogglebox Au - S04E08","uid":16043728,"size":408844288,"categoryP":"video","categoryS":"tv_shows","magnet":"?xt=urn:btih:d20c567e6d6592fa11e625ab437ba39e347d4e24&amp;dn=Gogglebox+Au+-+S04E08&amp;tr=udp%3A%2F%2Ftracker.leechers-paradise.org%3A6969&amp;tr=udp%3A%2F%2Fzer0day.ch%3A1337&amp;tr=udp%3A%2F%2Fopen.demonii.com%3A1337&amp;tr=udp%3A%2F%2Ftracker.coppersurfer.tk%3A6969&amp;tr=udp%3A%2F%2Fexodus.desync.com%3A6969","seeders":10,"leechers":3,"uploader":"Bullrout","files":1,"time":1476539814,"description":"Gogglebox Au - S04E08\r\n\r\nIn the season finale, the Goggleboxers share their reactions to TV highlights including The Great Australian Bake Off, 60 Days In, Hyde &amp; Seek, Air BnB: Dream or Nightmare, Body Hack and The X Factor.\r\n\r\nComplete name                            : Gogglebox Au - S04E08.mp4\r\nFormat                                   : MPEG-4\r\nFormat profile                           : Base Media / Version 2\r\nCodec ID                                 : mp42 (mp42/isom/avc1)\r\nFile size                                : 390 MiB\r\nDuration                                 : 49 min 44 s\r\nOverall bit rate mode                    : Variable\r\nOverall bit rate                         : 1 096 kb/s\r\n\r\nVideo\r\nID                                       : 2\r\nFormat                                   : AVC\r\nFormat/Info                              : Advanced Video Codec\r\nFormat profile                           :   \r\nFormat settings, CABAC                   : Yes\r\nFormat settings, ReFrames                : 3 frames\r\nCodec ID                                 : avc1\r\nCodec ID/Info                            : Advanced Video Coding\r\nDuration                                 : 49 min 44 s\r\nBit rate mode                            : Variable\r\nBit rate                                 : 965 kb/s\r\nMaximum bit rate                         : 1 000 kb/s\r\nWidth                                    : 720 pixels\r\nHeight                                   : 404 pixels\r\nDisplay aspect ratio                     : 16:9\r\nOriginal display aspect ratio            : 16:9\r\nFrame rate mode                          : Constant\r\nFrame rate                               : 25.000 FPS\r\nStandard                                 : PAL\r\nColor space                              : YUV\r\nChroma subsampling                       : 4:2:0\r\nBit depth                                : 8 bits\r\nScan type                                : Progressive\r\nBits/(Pixel*Frame)                       : 0.133\r\nStream size                              : 343 MiB (88%)\r\nWriting library                          : x264 core 112\r\nColor range                              : Limited\r\nColor primaries                          : BT.601 PAL\r\nTransfer characteristics                 : BT.470 System B, BT.470 System G\r\nMatrix coefficients                      : BT.601\r\n\r\nAudio\r\nID                                       : 1\r\nFormat                                   : AAC\r\nFormat/Info                              : Advanced Audio Codec\r\nFormat profile                           : LC\r\nCodec ID                                 : 40\r\nDuration                                 : 49 min 44 s\r\nBit rate mode                            : Variable\r\nBit rate                                 : 128 kb/s\r\nMaximum bit rate                         : 576 kb/s\r\nChannel(s)                               : 2 channels\r\nChannel positions                        : Front: L R\r\nSampling rate                            : 48.0 kHz\r\nFrame rate                               : 46.875 FPS (1024 spf)\r\nCompression mode                         : Lossy\r\nStream size                              : 45.5 MiB (12%)","torrent":{"xt":"urn:btih:d20c567e6d6592fa11e625ab437ba39e347d4e24","amp;dn":"Gogglebox+Au+-+S04E08","amp;tr":["udp%3A%2F%2Ftracker.leechers-paradise.org%3A6969","udp%3A%2F%2Fzer0day.ch%3A1337","udp%3A%2F%2Fopen.demonii.com%3A1337","udp%3A%2F%2Ftracker.coppersurfer.tk%3A6969","udp%3A%2F%2Fexodus.desync.com%3A6969"],"infoHash":"d20c567e6d6592fa11e625ab437ba39e347d4e24","infoHashBuffer":{"type":"Buffer","data":[210,12,86,126,109,101,146,250,17,230,37,171,67,123,163,158,52,125,78,36]},"announce":[],"urlList":[]}}